<?xml version="1.0" standalone="no"?>
<!DOCTYPE svg PUBLIC "-//W3C//DTD SVG 20010904//EN"
 "http://www.w3.org/TR/2001/REC-SVG-20010904/DTD/svg10.dtd">
<svg version="1.0" xmlns="http://www.w3.org/2000/svg"
 width="626.000000pt" height="626.000000pt" viewBox="0 0 626.000000 626.000000"
 preserveAspectRatio="xMidYMid meet">
<metadata>
Created by potrace 1.11, written by Peter Selinger 2001-2013
</metadata>
<g transform="translate(0.000000,626.000000) scale(0.100000,-0.100000)"
fill="#000000" stroke="none">
<path d="M2777 5114 c-1 -1 -34 -5 -72 -8 -39 -3 -85 -8 -102 -11 -18 -3 -45
-7 -60 -9 -16 -3 -38 -7 -50 -10 -49 -13 -64 -16 -82 -20 -11 -3 -28 -9 -39
-15 -11 -6 -22 -8 -25 -4 -4 3 -13 0 -22 -7 -8 -7 -15 -9 -15 -5 0 4 -6 3 -12
-2 -7 -6 -31 -16 -53 -23 -58 -18 -265 -121 -265 -132 0 -5 -4 -7 -9 -3 -5 3
-15 -1 -23 -8 -7 -7 -30 -23 -50 -36 -21 -12 -38 -27 -38 -32 0 -5 -4 -8 -8
-6 -13 3 -132 -92 -132 -105 0 -6 -3 -9 -6 -6 -6 7 -125 -110 -169 -166 -16
-22 -38 -47 -47 -57 -10 -11 -15 -19 -10 -19 4 0 2 -4 -3 -8 -13 -9 -46 -60
-43 -66 2 -2 -7 -15 -18 -28 -24 -26 -59 -89 -56 -100 1 -5 -3 -8 -9 -8 -5 0
-8 -4 -5 -9 4 -5 3 -11 -2 -13 -10 -4 -60 -109 -68 -145 -4 -16 -10 -32 -14
-38 -7 -10 -23 -62 -25 -80 0 -5 -3 -15 -7 -20 -8 -12 -37 -135 -43 -180 -16
-119 -19 -164 -19 -270 0 -113 8 -233 20 -286 3 -13 7 -35 10 -49 6 -35 25
-112 31 -130 4 -8 7 -19 8 -25 2 -5 13 -39 25 -75 20 -58 36 -97 88 -210 33
-72 128 -221 144 -228 5 -2 6 -7 3 -12 -3 -4 13 -26 34 -49 21 -22 37 -42 35
-44 -2 -2 44 -52 103 -113 58 -60 103 -102 98 -94 -5 8 3 4 16 -10 34 -34 74
-65 139 -108 30 -21 61 -43 68 -50 8 -7 18 -10 23 -7 5 4 9 2 9 -3 0 -9 50
-37 63 -34 4 1 7 -2 7 -7 0 -7 36 -22 49 -20 2 0 7 -3 10 -8 5 -7 89 -44 111
-48 3 -1 16 -6 30 -13 22 -9 76 -24 82 -21 2 0 16 -4 31 -10 15 -6 40 -13 55
-16 15 -2 43 -7 62 -10 19 -4 53 -9 75 -11 45 -6 244 -5 290 0 79 11 147 22
153 26 2 3 2 3 57 15 58 12 54 11 130 40 88 33 198 86 207 100 4 5 8 6 8 1 0
-5 9 -1 20 9 11 10 20 15 20 11 0 -4 6 -2 13 4 29 24 114 81 135 90 12 5 22
14 22 20 0 6 4 9 8 6 5 -3 16 3 25 12 8 9 30 28 49 42 37 28 103 94 133 131
113 142 164 351 128 514 -47 210 -184 358 -413 446 -41 16 -80 29 -87 29 -21
0 -15 11 25 50 131 129 232 276 277 405 22 62 27 205 10 263 -7 23 -14 46 -15
50 -1 4 -6 17 -11 30 -5 13 -9 25 -9 28 0 15 -68 104 -79 104 -8 0 -11 3 -8 7
10 9 -14 34 -26 26 -5 -3 -7 -2 -4 4 6 10 -20 33 -81 71 -88 54 -192 92 -297
108 -102 16 -327 6 -385 -16 -3 -1 -8 -2 -12 -1 -4 0 -22 -6 -41 -14 -19 -8
-37 -11 -41 -8 -3 4 -6 1 -6 -6 0 -7 -4 -10 -8 -7 -5 3 -48 -15 -98 -39 -109
-54 -141 -73 -170 -102 -12 -13 -25 -23 -30 -23 -5 0 -31 -23 -57 -50 -138
-143 -216 -284 -263 -475 -38 -155 -40 -392 -5 -528 12 -49 30 -105 39 -125 9
-20 16 -39 16 -42 1 -3 20 -39 43 -81 46 -83 137 -202 200 -261 57 -53 186
-148 200 -148 7 0 13 -3 13 -8 0 -6 90 -52 104 -52 3 0 -18 32 -48 71 -95 128
-192 339 -212 464 -3 20 -8 47 -10 59 -3 11 -5 66 -5 121 0 149 32 279 104
420 46 90 89 135 191 199 247 156 546 116 550 -72 2 -130 -146 -302 -412 -477
l-73 -48 83 -24 c76 -21 232 -90 266 -117 56 -44 126 -116 151 -155 111 -172
82 -382 -73 -536 -95 -96 -237 -163 -379 -181 -58 -7 -219 -7 -257 1 -14 3
-51 10 -83 15 -120 22 -319 99 -354 136 -12 13 -25 24 -28 24 -7 0 -79 76
-108 114 -12 15 -30 36 -39 44 -10 9 -18 22 -18 28 0 7 -4 14 -8 16 -15 6 -91
125 -85 132 4 3 2 6 -4 6 -6 0 -20 22 -32 49 -11 28 -26 53 -31 56 -6 4 -8 10
-5 15 3 5 1 11 -5 15 -6 4 -8 11 -5 16 4 5 1 9 -4 9 -6 0 -10 3 -9 8 1 4 -4
21 -11 37 -7 17 -15 42 -18 58 -3 15 -8 27 -12 27 -4 0 -7 8 -8 18 0 9 -4 28
-8 42 -3 14 -8 32 -10 40 -2 8 -4 15 -5 15 -1 0 -3 11 -5 25 -2 14 -6 39 -9
55 -21 103 -27 352 -12 465 4 30 9 66 11 80 2 14 4 25 5 25 1 0 4 11 7 25 7
39 11 55 13 55 2 0 5 12 13 50 4 20 12 43 27 80 11 26 23 59 24 65 1 3 7 15
14 28 7 12 10 22 7 22 -4 0 3 13 14 29 12 16 21 36 21 45 0 9 4 16 9 16 8 0
19 22 25 50 1 2 11 15 24 29 12 13 20 26 17 29 -2 3 5 13 17 23 11 11 17 19
13 19 -5 0 0 7 11 15 10 8 15 15 11 15 -4 0 7 14 25 32 18 18 32 34 31 35 -2
2 -1 2 1 1 1 -2 15 11 30 29 36 43 96 102 96 95 0 -3 8 3 19 14 47 48 170 130
234 155 15 6 27 15 27 20 0 5 3 8 8 7 4 -2 39 10 77 26 39 15 77 29 85 31 8 2
42 10 75 19 94 24 151 30 280 30 134 -1 215 -8 242 -22 10 -6 21 -10 26 -10
22 0 83 -15 93 -23 7 -5 16 -9 20 -8 8 2 47 -13 121 -47 18 -8 35 -19 38 -24
4 -6 11 -7 17 -4 6 4 13 3 17 -2 3 -5 36 -29 73 -53 37 -23 72 -49 79 -57 6
-7 15 -11 20 -8 5 3 9 -2 9 -11 0 -9 4 -14 9 -11 5 4 11 2 13 -2 1 -5 28 -31
58 -58 30 -27 56 -53 58 -57 4 -14 42 -47 54 -47 6 0 9 -3 5 -6 -3 -4 -1 -12
6 -19 7 -7 23 -28 37 -45 14 -18 33 -41 43 -51 9 -11 17 -23 17 -29 0 -5 5
-10 11 -10 5 0 7 -4 4 -10 -3 -5 -1 -10 4 -10 6 0 11 -7 11 -16 0 -8 5 -12 10
-9 6 3 10 -3 10 -14 0 -12 4 -21 9 -21 5 0 14 -13 21 -30 7 -16 17 -30 23 -30
6 0 8 -3 4 -6 -3 -3 8 -27 24 -54 16 -26 29 -51 29 -55 0 -4 10 -21 22 -38 12
-17 16 -27 8 -22 -8 5 -4 -5 8 -22 12 -17 22 -37 22 -45 0 -7 5 -20 10 -28 14
-21 6 27 -20 115 -12 39 -23 81 -26 95 -3 13 -10 30 -16 37 -6 7 -7 13 -3 13
4 0 2 7 -5 15 -7 8 -10 15 -7 15 6 0 -5 30 -40 108 -9 20 -17 39 -18 42 -6 22
-61 126 -68 131 -5 3 -8 9 -8 13 2 8 -31 59 -42 67 -5 3 -8 10 -8 15 0 5 -9
19 -19 32 -11 12 -17 22 -14 22 3 0 -1 6 -8 14 -7 8 -22 26 -33 42 -48 68
-203 224 -211 214 -2 -3 -11 5 -19 18 -9 12 -23 22 -31 22 -8 0 -13 4 -10 9 5
8 -13 20 -29 21 -3 0 -15 8 -26 18 -11 11 -37 28 -57 38 -20 11 -39 22 -42 25
-9 9 -105 53 -112 51 -5 -1 -8 3 -8 10 0 6 -3 9 -6 5 -4 -3 -25 3 -48 15 -22
11 -43 20 -46 20 -3 -1 -23 4 -45 10 -22 6 -42 12 -45 13 -47 12 -79 19 -95
21 -11 1 -20 3 -20 4 0 9 -330 32 -338 24z"/>
<path d="M4627 3814 c-1 -1 -27 -5 -57 -9 -30 -3 -73 -11 -95 -17 -22 -5 -49
-12 -60 -15 -142 -32 -319 -150 -388 -260 -75 -120 -86 -261 -28 -370 48 -90
89 -127 251 -233 14 -9 54 -29 90 -44 167 -74 330 -184 330 -223 0 -7 3 -13 8
-13 9 0 37 -62 34 -77 -1 -6 1 -14 6 -17 11 -7 16 43 15 149 -1 86 -22 176
-56 240 -6 11 -11 23 -12 27 0 4 -9 18 -20 30 -10 13 -17 24 -15 25 7 4 -43
83 -52 83 -5 0 -8 5 -8 10 0 15 -44 64 -137 154 -46 44 -83 85 -83 93 0 7 -3
13 -8 13 -14 0 -30 72 -27 124 5 100 64 177 172 228 126 60 313 56 337 -7 8
-23 -12 -77 -56 -150 -42 -72 -124 -185 -142 -197 -6 -4 -8 -9 -6 -12 3 -2 99
87 214 199 183 178 206 204 190 213 -26 13 -90 33 -117 37 -12 1 -38 6 -57 9
-33 7 -218 15 -223 10z"/>
<path d="M4523 3195 c0 -8 3 -12 6 -10 15 9 200 -271 190 -287 -1 -2 6 -20 14
-41 30 -72 40 -201 23 -322 -4 -27 -9 -69 -12 -91 -17 -136 -174 -231 -381
-228 -91 1 -126 16 -145 62 -22 58 26 194 118 328 24 35 42 64 40 64 -3 0
-117 -114 -340 -343 -53 -54 -96 -102 -96 -107 0 -5 17 -13 38 -19 20 -5 48
-12 62 -15 73 -18 408 -27 505 -14 110 15 195 42 289 92 64 33 186 146 186
171 0 8 4 15 8 15 28 0 65 215 49 286 -28 119 -173 259 -378 366 -35 18 -65
36 -67 41 -2 4 -8 7 -14 7 -5 0 -29 13 -52 29 -29 20 -43 25 -43 16z"/>
</g>
</svg>
